<?xml version="1.0" standalone="no"?>
<!DOCTYPE svg PUBLIC "-//W3C//DTD SVG 20010904//EN"
 "http://www.w3.org/TR/2001/REC-SVG-20010904/DTD/svg10.dtd">
<svg version="1.0" xmlns="http://www.w3.org/2000/svg"
 width="1344.000000pt" height="768.000000pt" viewBox="0 0 1344.000000 768.000000"
 preserveAspectRatio="xMidYMid meet">

<g transform="translate(0.000000,768.000000) scale(0.100000,-0.100000)"
fill="#000000" stroke="none">
<path d="M2463 5718 c-6 -7 -57 -87 -113 -178 -319 -512 -509 -813 -600 -955
-57 -88 -147 -228 -200 -311 -54 -83 -125 -193 -159 -243 l-61 -91 86 -131
c77 -118 209 -325 509 -802 55 -87 163 -258 241 -380 77 -122 178 -282 224
-354 46 -73 86 -133 89 -133 3 0 49 69 102 153 53 83 134 211 179 282 125 197
269 431 276 449 5 14 -9 16 -120 16 l-126 0 -66 103 c-76 116 -290 453 -402
632 -41 66 -81 128 -89 137 -11 12 -12 21 -4 37 6 11 120 188 252 393 133 205
284 439 336 521 l96 147 689 0 689 0 65 103 c36 56 115 181 176 277 60 96 130
205 154 241 24 36 46 73 50 82 6 16 -75 17 -1129 17 -896 0 -1137 -3 -1144
-12z"/>
<path d="M5632 5303 l-80 -78 0 -407 0 -408 31 0 c55 0 291 40 297 50 3 5 5
150 4 322 -1 172 1 319 3 325 4 10 52 13 194 13 l189 0 0 -75 0 -75 53 1 c28
0 102 6 162 12 l110 12 3 121 3 121 -48 46 c-26 25 -62 57 -79 71 l-32 26
-365 0 -365 0 -80 -77z"/>
<path d="M6810 4985 l0 -396 33 5 c17 3 100 18 182 32 83 14 236 38 340 53
l190 28 0 104 0 104 -186 -4 c-102 -2 -195 0 -207 3 -21 7 -22 13 -22 100 l0
93 52 7 c28 4 135 7 237 6 102 -1 194 -1 204 -1 15 1 17 14 17 131 l0 130
-420 0 -420 0 0 -395z"/>
<path d="M7835 5369 c-4 -5 -5 -147 -3 -315 l3 -304 40 6 c203 31 290 50 291
64 1 8 2 20 3 25 1 6 10 -1 19 -13 l18 -24 143 23 c82 13 145 29 148 35 2 7
-19 50 -49 97 -29 46 -98 159 -153 250 l-100 167 -177 0 c-114 0 -179 -4 -183
-11z"/>
<path d="M8616 5373 c-18 -5 -19 -15 -13 -250 3 -135 8 -247 10 -249 6 -6 321
46 329 54 5 5 7 107 6 228 l-3 219 -155 1 c-85 1 -164 0 -174 -3z"/>
<path d="M9227 5307 l-78 -72 1 -139 0 -139 48 6 c77 10 245 37 270 42 19 5
22 12 22 60 l0 55 195 0 195 0 0 -31 c0 -23 4 -30 14 -26 8 3 75 15 148 27 73
12 143 23 156 26 20 4 22 10 22 67 l0 62 -77 67 -78 67 -380 0 -380 0 -78 -72z"/>
<path d="M10460 5080 c-25 -5 -165 -27 -312 -51 l-268 -42 0 -284 0 -283 -195
0 -195 0 0 256 0 256 -22 -5 c-13 -3 -89 -16 -170 -28 l-148 -23 0 -290 1
-291 80 -72 79 -73 378 0 377 0 78 71 77 71 0 339 0 338 28 15 c15 8 91 33
167 56 77 23 142 44 144 46 7 6 -49 3 -99 -6z"/>
<path d="M6077 4798 c-3 -24 -5 -79 -4 -123 l2 -80 108 -3 107 -3 0 -39 c0
-22 3 -40 8 -40 4 0 72 11 150 25 78 14 145 25 147 25 3 0 5 63 5 140 l0 140
-259 0 -258 0 -6 -42z"/>
<path d="M8760 4814 c-74 -13 -138 -23 -142 -24 -5 0 -8 -16 -8 -35 0 -43 -14
-45 -35 -5 -9 17 -21 30 -28 30 -26 1 -297 -45 -297 -50 0 -3 17 -33 38 -68
100 -167 252 -422 277 -465 l27 -47 175 2 175 3 -1 295 c0 162 -1 316 -1 343
0 56 12 55 -180 21z"/>
<path d="M8099 4716 c-2 -3 -56 -12 -119 -21 -63 -10 -121 -20 -128 -24 -11
-6 -14 -61 -15 -259 l-2 -251 50 -6 c28 -3 104 -5 170 -3 l120 3 3 250 c2 138
0 265 -3 283 -5 28 -10 32 -39 32 -18 0 -35 -2 -37 -4z"/>
<path d="M6950 4534 c-74 -12 -136 -23 -137 -23 -2 -1 -3 -82 -3 -181 l0 -181
423 3 422 3 3 139 3 138 -253 -3 -253 -4 -3 68 -3 67 -32 -1 c-18 -1 -93 -12
-167 -25z"/>
<path d="M6431 4455 c-74 -13 -148 -29 -164 -35 -17 -5 -53 -10 -81 -10 -28 0
-112 -9 -186 -20 -74 -11 -243 -36 -375 -55 -277 -40 -405 -61 -413 -70 -5 -5
161 0 299 10 l67 5 72 -65 72 -65 363 0 362 0 76 68 77 67 0 98 c0 86 -2 97
-17 96 -10 0 -78 -11 -152 -24z"/>
<path d="M3179 4348 c-29 -57 -148 -272 -275 -495 -57 -100 -104 -185 -104
-188 0 -3 268 -5 595 -5 333 0 595 -4 595 -9 0 -5 -49 -84 -108 -177 -203
-316 -399 -619 -524 -809 -242 -368 -330 -506 -326 -510 2 -3 206 -5 451 -6
l448 -2 202 324 c112 178 236 376 276 439 41 63 94 148 120 188 25 40 62 98
82 130 20 31 91 143 158 247 l121 190 0 363 0 362 -845 0 -845 0 -21 -42z"/>
<path d="M5559 3593 c0 -82 -2 -161 -3 -178 -1 -16 -3 -161 -4 -320 l-2 -291
-172 -48 c-160 -44 -236 -73 -163 -62 17 3 59 10 95 16 36 6 155 24 265 40
110 16 224 34 254 40 29 5 55 10 57 10 2 0 4 29 4 65 l0 65 214 0 215 0 85 68
85 67 -2 269 -2 270 -79 68 -78 68 -384 0 -384 0 -1 -147z m589 -125 c13 -13
17 -245 4 -265 -6 -10 -155 -18 -249 -14 -10 1 -13 37 -13 146 l0 145 123 0
c82 0 127 -4 135 -12z"/>
<path d="M6644 3729 c-7 -11 4 -820 11 -828 2 -2 59 4 127 14 137 18 644 92
697 101 21 3 46 19 67 41 l34 36 0 248 0 249 -27 28 c-16 15 -51 48 -80 75
l-52 47 -385 0 c-276 0 -387 -3 -392 -11z m595 -263 c8 -9 11 -54 9 -132 l-3
-119 -132 -3 -133 -3 0 136 0 135 124 0 c93 0 126 -3 135 -14z"/>
<path d="M7780 3396 l0 -345 33 5 c17 2 89 13 159 24 70 11 130 20 133 20 3 0
5 144 5 320 l0 320 -165 0 -165 0 0 -344z"/>
<path d="M8310 3434 l0 -307 43 6 c361 52 601 90 610 98 5 3 -60 120 -143 258
l-151 251 -180 0 -179 0 0 -306z"/>
<path d="M9080 3489 l0 -251 33 5 c17 3 88 13 157 23 69 9 128 20 132 23 9 8
11 84 10 284 l-2 167 -165 0 -165 0 0 -251z"/>
<path d="M9549 3713 c-1 -16 -1 -75 0 -133 l0 -105 138 2 c178 2 183 0 183
-73 0 -56 0 -56 28 -51 15 3 89 14 165 23 l137 17 0 39 0 38 165 0 166 0 -3
133 -3 132 -487 3 -488 2 -1 -27z"/>
<path d="M10728 3672 l-77 -67 -1 -74 0 -73 33 6 c17 3 133 19 257 35 339 45
594 83 600 88 3 3 -31 38 -75 79 l-80 74 -290 0 -290 -1 -77 -67z"/>
<path d="M11730 3534 c-80 -13 -224 -34 -320 -47 l-175 -23 -3 -49 -3 -48 152
7 c159 7 169 10 169 53 0 24 37 38 245 94 82 22 125 39 95 38 -8 -1 -80 -12
-160 -25z"/>
<path d="M10795 3403 c-163 -23 -145 -5 -145 -145 0 -138 -10 -119 105 -207
l50 -39 165 -11 c91 -6 189 -14 218 -17 l53 -6 -3 -112 -3 -111 -137 -3 -138
-3 0 53 c0 29 -4 59 -8 66 -7 9 -46 12 -163 10 l-154 -3 -3 -116 -3 -117 78
-71 77 -71 314 0 c354 0 313 -9 415 87 l48 45 0 242 -1 241 -48 43 c-108 98
-88 91 -293 102 -101 6 -199 13 -216 16 l-33 5 0 69 0 70 -37 -1 c-21 -1 -83
-8 -138 -16z"/>
<path d="M10050 3299 c-63 -11 -130 -22 -147 -25 l-33 -5 0 -384 0 -385 165 0
165 0 0 410 c0 384 -1 410 -17 409 -10 -1 -70 -10 -133 -20z"/>
<path d="M9280 3190 c-58 -9 -127 -20 -154 -24 l-48 -8 5 -39 c7 -54 -8 -58
-35 -9 -14 24 -30 40 -42 40 -16 0 -107 -14 -254 -38 l-43 -7 47 -75 c99 -160
275 -453 294 -491 l20 -39 170 0 170 0 0 355 c0 278 -3 355 -12 354 -7 0 -60
-9 -118 -19z"/>
<path d="M8510 3080 c-58 -10 -126 -21 -152 -25 l-48 -6 0 -275 0 -274 170 0
170 0 0 300 c0 279 -1 300 -17 299 -10 -1 -65 -9 -123 -19z"/>
<path d="M7935 2995 c-82 -13 -151 -24 -152 -24 -2 -1 -3 -107 -3 -236 l0
-235 165 0 165 0 0 260 c0 202 -3 260 -12 259 -7 -1 -80 -12 -163 -24z"/>
<path d="M7258 2906 c-76 -11 -138 -23 -138 -27 0 -8 93 -232 135 -326 l24
-53 176 0 176 0 -7 23 c-3 12 -43 101 -89 197 -45 96 -85 183 -88 193 -8 20
-11 20 -189 -7z"/>
<path d="M6845 2849 c-60 -10 -130 -22 -154 -26 l-43 -8 -2 -155 -1 -155 168
-3 167 -2 0 185 c0 142 -3 185 -12 184 -7 -1 -62 -10 -123 -20z"/>
<path d="M5755 2700 c-55 -9 -121 -20 -147 -24 l-48 -7 0 -85 0 -84 165 0 165
0 0 110 c0 127 15 117 -135 90z"/>
<path d="M5552 2223 l3 -58 3003 -3 3002 -2 0 60 0 60 -3005 0 -3006 0 3 -57z"/>
</g>
</svg>
